{
  "accessors": [
    {
      "bufferView": 2,
      "componentType": 5126,
      "count": 946,
      "max": [
        6.642585754394531,
        2.1640357971191406,
        5.794076442718506
      ],
      "min": [
        -5.604423522949219,
        1.6154227256774902,
        -5.602100372314453
      ],
      "type": "VEC3"
    },
    {
      "bufferView": 2,
      "byteOffset": 11352,
      "componentType": 5126,
      "count": 946,
      "max": [
        0.5447511672973633,
        0.9999995827674866,
        0.4936316907405853
      ],
      "min": [
        -0.5431591272354126,
        0.8123328685760498,
        -0.26858067512512207
      ],
      "type": "VEC3"
    },
    {
      "bufferView": 1,
      "componentType": 5126,
      "count": 946,
      "max": [
        0.8584322929382324,
        0.7334323525428772
      ],
      "min": [
        0.6415677666664124,
        0.5165677070617676
      ],
      "type": "VEC2"
    },
    {
      "bufferView": 0,
      "componentType": 5125,
      "count": 5292,
      "type": "SCALAR"
    },
    {
      "bufferView": 2,
      "byteOffset": 22704,
      "componentType": 5126,
      "count": 2208,
      "max": [
        7.17989444732666,
        2.7179064750671387,
        6.977287292480469
      ],
      "min": [
        -5.546109199523926,
        1.1572785377502441,
        -5.797112941741943
      ],
      "type": "VEC3"
    },
    {
      "bufferView": 2,
      "byteOffset": 49200,
      "componentType": 5126,
      "count": 2208,
      "max": [
        0.999929666519165,
        0.9999996423721313,
        0.9998385310173035
      ],
      "min": [
        -0.9998335838317871,
        -0.9999996423721313,
        -0.9998138546943665
      ],
      "type": "VEC3"
    },
    {
      "bufferView": 1,
      "byteOffset": 7568,
      "componentType": 5126,
      "count": 2208,
      "max": [
        0.9958038330078125,
        0.9951201677322388
      ],
      "min": [
        0.2529466450214386,
        0.004572344943881035
      ],
      "type": "VEC2"
    },
    {
      "bufferView": 0,
      "byteOffset": 21168,
      "componentType": 5125,
      "count": 3408,
      "type": "SCALAR"
    }
  ],
  "asset": {
    "extras": {
      "author": "romaofilipe1999 (https://sketchfab.com/romaofilipe1999)",
      "license": "CC-BY-4.0 (http://creativecommons.org/licenses/by/4.0/)",
      "source": "https://sketchfab.com/3d-models/camp-bf99413f57cd48cb99ca5d14cf019269",
      "title": "camp"
    },
    "generator": "Sketchfab-16.56.0",
    "version": "2.0"
  },
  "bufferViews": [
    {
      "buffer": 0,
      "byteLength": 34800,
      "name": "floatBufferViews",
      "target": 34963
    },
    {
      "buffer": 0,
      "byteLength": 25232,
      "byteOffset": 34800,
      "byteStride": 8,
      "name": "floatBufferViews",
      "target": 34962
    },
    {
      "buffer": 0,
      "byteLength": 75696,
      "byteOffset": 60032,
      "byteStride": 12,
      "name": "floatBufferViews",
      "target": 34962
    }
  ],
  "buffers": [
    {
      "byteLength": 135728,
      "uri": "scene.bin"
    }
  ],
  "extensionsRequired": [
    "KHR_materials_pbrSpecularGlossiness"
  ],
  "extensionsUsed": [
    "KHR_materials_pbrSpecularGlossiness"
  ],
  "images": [
    {
      "uri": "textures/campoMaterial.003_diffuse.jpeg"
    }
  ],
  "materials": [
    {
      "doubleSided": true,
      "extensions": {
        "KHR_materials_pbrSpecularGlossiness": {
          "diffuseFactor": [
            0.128237,
            0.0438142,
            0.0111138,
            1.0
          ],
          "glossinessFactor": 0.00226173779898788,
          "specularFactor": [
            0.0,
            0.0,
            0.0
          ]
        }
      },
      "name": "campoterra.001"
    },
    {
      "doubleSided": true,
      "extensions": {
        "KHR_materials_pbrSpecularGlossiness": {
          "diffuseFactor": [
            1.0,
            1.0,
            1.0,
            1.0
          ],
          "diffuseTexture": {
            "index": 0
          },
          "glossinessFactor": 0.02378414230005442,
          "specularFactor": [
            0.0,
            0.0,
            0.0
          ]
        }
      },
      "name": "campoMaterial.003"
    }
  ],
  "meshes": [
    {
      "name": "campo:Torus.008_campo:terra.001_0",
      "primitives": [
        {
          "attributes": {
            "NORMAL": 1,
            "POSITION": 0,
            "TEXCOORD_0": 2
          },
          "indices": 3,
          "material": 0,
          "mode": 4
        }
      ]
    },
    {
      "name": "campo:cenoura.004_campo:Material.003_0",
      "primitives": [
        {
          "attributes": {
            "NORMAL": 5,
            "POSITION": 4,
            "TEXCOORD_0": 6
          },
          "indices": 7,
          "material": 1,
          "mode": 4
        }
      ]
    }
  ],
  "nodes": [
    {
      "children": [
        1
      ],
      "matrix": [
        1.0,
        0.0,
        0.0,
        0.0,
        0.0,
        2.220446049250313e-16,
        -1.0,
        0.0,
        0.0,
        1.0,
        2.220446049250313e-16,
        0.0,
        0.0,
        0.0,
        0.0,
        1.0
      ],
      "name": "Sketchfab_model"
    },
    {
      "children": [
        2
      ],
      "matrix": [
        0.009999999776482582,
        0.0,
        0.0,
        0.0,
        0.0,
        0.0,
        0.009999999776482582,
        0.0,
        0.0,
        -0.009999999776482582,
        0.0,
        0.0,
        0.0,
        0.0,
        0.0,
        1.0
      ],
      "name": "9c4cd9d4b4564f36b7b1fe115f4bfdc0.fbx"
    },
    {
      "children": [
        3,
        5
      ],
      "name": "RootNode"
    },
    {
      "children": [
        4
      ],
      "matrix": [
        -0.5741959360329434,
        -0.5755527773911864,
        -0.5822697205595906,
        0.0,
        -0.40412613980510637,
        0.8177646363332738,
        -0.40980856834494345,
        0.0,
        0.7120260459909284,
        5.551115123125783e-17,
        -0.7021530529952313,
        0.0,
        71.4693832397461,
        68.27725982666016,
        67.11302947998047,
        1.0
      ],
      "name": "campo:persp1"
    },
    {
      "name": "Object_4"
    },
    {
      "children": [
        6
      ],
      "matrix": [
        39.65366744995117,
        0.0,
        0.0,
        0.0,
        0.0,
        39.65366744995117,
        0.0,
        0.0,
        0.0,
        0.0,
        39.65366744995117,
        0.0,
        -0.356133371591568,
        0.0,
        0.0,
        1.0
      ],
      "name": "campo:group5"
    },
    {
      "children": [
        7,
        9
      ],
      "name": "campo:group4"
    },
    {
      "children": [
        8
      ],
      "name": "campo:Torus.008"
    },
    {
      "mesh": 0,
      "name": "campo:Torus.008_campo:terra.001_0"
    },
    {
      "children": [
        10
      ],
      "name": "campo:cenoura.004"
    },
    {
      "mesh": 1,
      "name": "campo:cenoura.004_campo:Material.003_0"
    }
  ],
  "samplers": [
    {
      "magFilter": 9729,
      "minFilter": 9987,
      "wrapS": 10497,
      "wrapT": 10497
    }
  ],
  "scene": 0,
  "scenes": [
    {
      "name": "Sketchfab_Scene",
      "nodes": [
        0
      ]
    }
  ],
  "textures": [
    {
      "sampler": 0,
      "source": 0
    }
  ]
}
